<?xml version="1.0" encoding="iso-8859-1"?>
<!-- Generator: Adobe Illustrator 19.0.0, SVG Export Plug-In . SVG Version: 6.00 Build 0)  -->
<svg version="1.1" id="Layer_1" xmlns="http://www.w3.org/2000/svg" xmlns:xlink="http://www.w3.org/1999/xlink" x="0px" y="0px"
	 viewBox="0 0 50 50" style="enable-background:new 0 0 50 50;" xml:space="preserve">
<path id="XMLID_39_" style="fill:none;stroke:#717273;stroke-width:0.7;stroke-linecap:round;stroke-miterlimit:10;" d="
	M43.796,24.594c0,10.576-8.574,19.151-19.151,19.151S5.494,35.17,5.494,24.594S14.068,5.443,24.645,5.443
	S43.796,14.018,43.796,24.594"/>
<circle id="XMLID_38_" style="fill:none;stroke:#717273;stroke-width:0.7;stroke-linecap:round;stroke-miterlimit:10;" cx="24.645" cy="24.594" r="19.151"/>
<g id="XMLID_1_">
	<path id="XMLID_7_" style="fill:#FFFFFF;stroke:#727374;stroke-width:0.7;stroke-miterlimit:10;" d="M24.645,9.699
		c-8.226,0-14.895,6.669-14.895,14.895s6.669,14.895,14.895,14.895s14.895-6.669,14.895-14.895S32.872,9.699,24.645,9.699z
		 M24.645,35.234c-5.876,0-10.64-4.764-10.64-10.64s4.763-10.64,10.64-10.64c5.876,0,10.639,4.764,10.639,10.64
		S30.521,35.234,24.645,35.234z"/>
</g>
<path id="XMLID_35_" style="fill:#FFFFFF;stroke:#727374;stroke-width:0.7;stroke-miterlimit:10;" d="M31.029,24.594
	c0,3.526-2.858,6.384-6.384,6.384s-6.384-2.858-6.384-6.384s2.858-6.384,6.384-6.384S31.029,21.068,31.029,24.594"/>
<line id="XMLID_33_" style="fill:none;stroke:#717273;stroke-width:0.7;stroke-linecap:round;stroke-miterlimit:10;" x1="11.169" y1="38.071" x2="5.494" y2="43.745"/>
<line id="XMLID_32_" style="fill:none;stroke:#717273;stroke-width:0.7;stroke-linecap:round;stroke-miterlimit:10;" x1="38.122" y1="38.071" x2="43.796" y2="43.745"/>
<line id="XMLID_31_" style="fill:none;stroke:#717273;stroke-width:0.7;stroke-linecap:round;stroke-miterlimit:10;" x1="24.645" y1="24.594" x2="43.796" y2="5.443"/>
<line id="XMLID_30_" style="fill:none;stroke:#717273;stroke-width:0.7;stroke-linecap:round;stroke-miterlimit:10;" x1="40.25" y1="8.989" x2="40.25" y2="4.734"/>
<line id="XMLID_29_" style="fill:none;stroke:#717273;stroke-width:0.7;stroke-linecap:round;stroke-miterlimit:10;" x1="40.25" y1="8.989" x2="44.506" y2="8.989"/>
</svg>
