<?xml version="1.0" encoding="utf-8"?>
<!-- Generator: Adobe Illustrator 13.0.0, SVG Export Plug-In  -->
<!DOCTYPE svg PUBLIC "-//W3C//DTD SVG 1.1//EN" "http://www.w3.org/Graphics/SVG/1.1/DTD/svg11.dtd" [
	<!ENTITY ns_flows "http://ns.adobe.com/Flows/1.0/">
]>
<svg version="1.1"
	 xmlns="http://www.w3.org/2000/svg" xmlns:xlink="http://www.w3.org/1999/xlink" xmlns:a="http://ns.adobe.com/AdobeSVGViewerExtensions/3.0/"
	 x="0px" y="0px" width="302px" height="62px" viewBox="-1.179 -0.83 302 62" enable-background="new -1.179 -0.83 302 62"
	 xml:space="preserve">
<defs>
</defs>
<path fill="#49C763" d="M0,11.41c0,0,125.634-25.471,299.993-0.302"/>
<polygon fill="#49C763" points="299.994,60.295 0,60.295 0,11.393 299.994,11.093 "/>
<polygon fill="#49C763" points="1.961,11.379 276.12,18.311 299.659,11.111 280.12,9.645 233.786,6.311 179.12,6.645 "/>
<g>
	<g>
		<g>
			<g>
				<path fill="#FDFEFF" d="M161.451,37.475l-3.662-3.836c-0.729-0.76-1.966-0.768-2.758-0.012l-1.932,1.844
					c-0.116-0.066-0.239-0.139-0.367-0.215c-1.177-0.688-2.783-1.631-4.459-3.391c-1.683-1.757-2.552-3.414-3.188-4.621
					c-0.067-0.129-0.131-0.252-0.194-0.369l1.296-1.236l0.639-0.609c0.791-0.756,0.841-1.992,0.112-2.754l-3.661-3.836
					c-0.728-0.762-1.965-0.767-2.757-0.011l-1.081,1.038l0.028,0.029c-0.364,0.443-0.673,0.958-0.906,1.515
					c-0.215,0.53-0.354,1.038-0.423,1.549c-0.589,4.091,1.199,7.884,6.171,13.085c6.867,7.195,12.545,6.795,12.791,6.775
					c0.534-0.053,1.047-0.166,1.571-0.357c0.563-0.203,1.09-0.488,1.549-0.83l0.022,0.02l1.095-1.021
					C162.126,39.473,162.177,38.239,161.451,37.475z"/>
			</g>
		</g>
	</g>
</g>
</svg>
