<?xml version="1.0" encoding="iso-8859-1"?>
<!-- Generator: Adobe Illustrator 19.0.0, SVG Export Plug-In . SVG Version: 6.00 Build 0)  -->
<svg version="1.1" id="Layer_1" xmlns="http://www.w3.org/2000/svg" xmlns:xlink="http://www.w3.org/1999/xlink" x="0px" y="0px"
	 viewBox="0 0 50 50" style="enable-background:new 0 0 50 50;" xml:space="preserve">
<line id="XMLID_66_" style="fill:none;stroke:#717273;stroke-width:0.7;stroke-linecap:round;stroke-miterlimit:10;" x1="25.625" y1="34.228" x2="25.625" y2="40.138"/>
<rect id="XMLID_65_" x="7.153" y="10.584" style="fill:#FFFFFF;" width="36.943" height="23.644"/>
<polyline id="XMLID_63_" style="fill:none;stroke:#717273;stroke-width:0.7;stroke-linecap:round;stroke-miterlimit:10;" points="
	7.153,10.584 4.198,10.584 4.198,7.628 21.931,7.628 23.408,6.151 27.842,6.151 29.319,7.628 47.052,7.628 47.052,10.584 
	44.097,10.584 "/>
<circle id="XMLID_62_" style="fill:none;stroke:#717273;stroke-width:0.7;stroke-linecap:round;stroke-miterlimit:10;" cx="25.625" cy="42.355" r="2.217"/>
<line id="XMLID_61_" style="fill:none;stroke:#717273;stroke-width:0.7;stroke-linecap:round;stroke-miterlimit:10;" x1="13.803" y1="27.578" x2="22.67" y2="18.711"/>
<line id="XMLID_60_" style="fill:none;stroke:#717273;stroke-width:0.7;stroke-linecap:round;stroke-miterlimit:10;" x1="29.319" y1="25.361" x2="37.447" y2="17.234"/>
<line id="XMLID_59_" style="fill:none;stroke:#717273;stroke-width:0.7;stroke-linecap:round;stroke-miterlimit:10;" x1="22.67" y1="18.711" x2="29.319" y2="25.361"/>
<path id="XMLID_58_" style="fill:none;stroke:#717273;stroke-width:0.7;stroke-miterlimit:10;" d="M24.357,18.711
	c0,0.931-0.756,1.687-1.687,1.687c-0.931,0-1.687-0.756-1.687-1.687c0-0.931,0.756-1.687,1.687-1.687
	C23.601,17.024,24.357,17.78,24.357,18.711"/>
<path id="XMLID_57_" style="fill:none;stroke:#717273;stroke-width:0.7;stroke-miterlimit:10;" d="M30.94,25.361
	c0,0.895-0.726,1.621-1.621,1.621c-0.895,0-1.621-0.726-1.621-1.621c0-0.895,0.726-1.621,1.621-1.621
	C30.214,23.74,30.94,24.466,30.94,25.361"/>
<path id="XMLID_56_" style="fill:none;stroke:#717273;stroke-width:0.7;stroke-miterlimit:10;" d="M38.925,17.234
	c0,0.816-0.662,1.478-1.478,1.478c-0.816,0-1.478-0.662-1.478-1.478c0-0.816,0.662-1.478,1.478-1.478
	C38.263,15.756,38.925,16.418,38.925,17.234"/>
<path id="XMLID_55_" style="fill:none;stroke:#717273;stroke-width:0.7;stroke-miterlimit:10;" d="M15.44,27.578
	c0,0.904-0.733,1.637-1.637,1.637c-0.904,0-1.637-0.733-1.637-1.637c0-0.904,0.733-1.637,1.637-1.637
	C14.707,25.941,15.44,26.674,15.44,27.578"/>
<line id="XMLID_54_" style="fill:none;stroke:#717273;stroke-width:0.7;stroke-linecap:round;stroke-miterlimit:10;" x1="38.186" y1="29.055" x2="39.664" y2="29.055"/>
<line id="XMLID_53_" style="fill:none;stroke:#717273;stroke-width:0.7;stroke-linecap:round;stroke-miterlimit:10;" x1="11.586" y1="15.756" x2="13.064" y2="15.756"/>
<rect id="XMLID_64_" x="7.153" y="10.584" style="fill:none;stroke:#717273;stroke-width:0.7;stroke-linecap:round;stroke-miterlimit:10;" width="36.943" height="23.644"/>
</svg>
