<?xml version="1.0" encoding="iso-8859-1"?>
<!-- Generator: Adobe Illustrator 19.0.0, SVG Export Plug-In . SVG Version: 6.00 Build 0)  -->
<svg version="1.1" id="Layer_1" xmlns="http://www.w3.org/2000/svg" xmlns:xlink="http://www.w3.org/1999/xlink" x="0px" y="0px"
	 viewBox="0 0 50 50" style="enable-background:new 0 0 50 50;" xml:space="preserve">
<g id="XMLID_16_">
	<path id="XMLID_22_" style="fill:none;stroke:#717273;stroke-width:0.7;stroke-linecap:round;stroke-miterlimit:10;" d="
		M24.631,4.17c-11.664,0-21.119,9.455-21.119,21.119s9.455,21.119,21.119,21.119S45.75,36.953,45.75,25.29S36.295,4.17,24.631,4.17z
		 M35.722,42.381l-6.192-6.108c-1.498,0.669-3.153,1.049-4.899,1.049c-1.786,0-3.474-0.399-4.998-1.097l-5.564,7.152l5.564-7.152
		c-2.35-1.076-4.296-2.878-5.539-5.129l-5.689,7.313l5.689-7.313c-0.951-1.722-1.495-3.7-1.495-5.806
		c0-1.689,0.351-3.294,0.979-4.753l-6.683-6.592l6.683,6.592c1.078-2.503,2.979-4.567,5.365-5.85l-6.594-6.504l6.594,6.504
		c1.694-0.911,3.63-1.43,5.689-1.43c1.048,0,2.06,0.148,3.029,0.4l5.608-7.209l-5.608,7.209c2.536,0.659,4.748,2.114,6.343,4.096
		l5.544-7.127l-5.544,7.127c1.661,2.063,2.66,4.682,2.66,7.537c0,1.999-0.495,3.88-1.357,5.539l6.583,6.494l-6.583-6.494
		c-1.251,2.407-3.289,4.333-5.776,5.444L35.722,42.381z"/>
</g>
<line id="XMLID_11_" style="fill:none;stroke:#717273;stroke-width:0.7;stroke-linecap:round;stroke-miterlimit:10;" x1="35.115" y1="41.781" x2="35.955" y2="42.737"/>
</svg>
