<?xml version="1.0" encoding="iso-8859-1"?>
<!-- Generator: Adobe Illustrator 20.1.0, SVG Export Plug-In . SVG Version: 6.00 Build 0)  -->
<svg version="1.1" id="Layer_1" xmlns="http://www.w3.org/2000/svg" xmlns:xlink="http://www.w3.org/1999/xlink" x="0px" y="0px"
	 viewBox="0 0 80 80" style="enable-background:new 0 0 80 80;" xml:space="preserve">
<g id="layer1_1_" transform="translate(0,-1020.3622)">
	<g id="g15724-5-6-42" transform="translate(-772.22935,-21.500553)">
		<path id="path5481-60-3-0-7" style="fill:#504851;" d="M814.747,1045.751c-0.383-0.026-0.766-0.014-1.15,0.034
			c-3.07,0.384-5.665,2.866-7.637,6.405l-3.944,6.728c-0.379,0.568-0.226,1.336,0.344,1.715c0.569,0.379,1.338,0.225,1.717-0.343
			c0.026-0.039,0.049-0.079,0.071-0.12l3.949-6.728c0.005-0.008,0.01-0.016,0.014-0.024c1.756-3.161,3.92-4.947,5.796-5.182
			c1.876-0.235,3.947,0.829,6.061,4.558l5.747,11.857l-10.537-3.094c-0.652-0.207-1.348,0.154-1.555,0.805
			c-0.207,0.651,0.154,1.346,0.806,1.553c0.018,0.006,0.035,0.011,0.053,0.016l13.239,3.881c0.656,0.192,1.344-0.185,1.536-0.84
			c0.002-0.007,0.004-0.014,0.006-0.02l3.669-13.302c0.191-0.656-0.187-1.342-0.844-1.533c-0.129-0.038-0.264-0.054-0.399-0.048
			c-0.545,0.024-1.01,0.401-1.146,0.928l-2.804,10.151l-5.578-11.504c-0.012-0.023-0.025-0.046-0.039-0.068
			C820.041,1047.903,817.428,1045.93,814.747,1045.751z M813.732,1067.024c-10.255,0-18.513,8.336-18.513,18.556
			c0,10.225,8.258,18.556,18.513,18.556c10.253,0,18.614-8.323,18.614-18.556c0.001-0.166-0.032-0.33-0.097-0.483
			c-0.276-9.992-8.438-18.068-18.518-18.068V1067.024z M813.732,1069.494c8.913,0,16.135,7.198,16.135,16.086
			c0,8.892-7.222,16.086-16.135,16.086c-8.916,0-16.038-7.185-16.038-16.086C797.694,1076.683,804.816,1069.494,813.732,1069.494z
			 M789.723,1083.226c-0.077,0.006-0.153,0.019-0.227,0.039l-13.355,3.47c-0.666,0.155-1.081,0.819-0.926,1.484
			c0.155,0.665,0.82,1.079,1.487,0.925c0.021-0.005,0.042-0.01,0.063-0.016l10.209-2.649l-7.188,10.586
			c-0.014,0.022-0.026,0.045-0.039,0.068c-2.446,4.159-2.625,7.805-0.754,10.276c1.871,2.471,5.332,3.476,9.397,3.408l7.777,0.058
			c0.684,0.014,1.251-0.528,1.265-1.211c0.014-0.683-0.529-1.249-1.213-1.263c-0.013,0-0.025,0-0.038,0l-7.802-0.058
			c-0.01,0-0.019,0-0.029,0c-3.616,0.059-6.239-0.918-7.381-2.427c-1.141-1.507-1.257-3.833,0.909-7.521h0.005l7.391-10.89
			l2.591,10.649c0.162,0.664,0.832,1.071,1.496,0.909c0.665-0.161,1.072-0.83,0.911-1.494l-3.263-13.394
			c-0.13-0.54-0.604-0.928-1.16-0.947C789.807,1083.224,789.765,1083.224,789.723,1083.226z M840.06,1088.906
			c-0.684,0.008-1.232,0.568-1.225,1.25c0.003,0.252,0.083,0.497,0.229,0.703l4.413,6.434c0.005,0.008,0.01,0.016,0.015,0.024
			c2.113,2.935,2.811,5.655,2.223,7.453c-0.586,1.796-2.435,3.215-6.695,3.543l-13.177,0.15l7.27-8.222
			c0.46-0.505,0.423-1.287-0.082-1.747c-0.225-0.204-0.517-0.319-0.821-0.322c-0.365-0.001-0.711,0.158-0.947,0.435l-9.14,10.325
			c-0.454,0.511-0.407,1.293,0.105,1.746c0.005,0.005,0.01,0.009,0.016,0.014l10.465,8.981c0.519,0.447,1.302,0.389,1.749-0.129
			c0.447-0.518,0.389-1.3-0.13-1.746l0,0l-8.004-6.869l12.79-0.14c0.027,0.001,0.055,0.001,0.082,0
			c4.812-0.366,7.908-2.299,8.87-5.245c0.959-2.938-0.18-6.348-2.542-9.638l-0.01-0.024l-4.403-6.419
			C840.877,1089.11,840.482,1088.901,840.06,1088.906z M813.953,1097.117c-3.482,0-6.315-2.666-6.315-5.941
			c0-0.43,0.349-0.778,0.778-0.778c0.43,0,0.778,0.349,0.778,0.778c0,2.418,2.135,4.385,4.759,4.385
			c2.624,0,4.759-1.967,4.759-4.385c0-2.418-2.134-4.385-4.759-4.385c-3.482,0-6.315-2.665-6.315-5.941
			c0-3.276,2.833-5.941,6.315-5.941c1.872,0,3.635,0.774,4.838,2.123c0.286,0.321,0.258,0.813-0.063,1.099
			c-0.321,0.286-0.813,0.258-1.098-0.063c-0.908-1.018-2.248-1.602-3.677-1.602c-2.624,0-4.759,1.967-4.759,4.384
			s2.135,4.385,4.759,4.385c3.482,0,6.315,2.666,6.315,5.941S817.435,1097.117,813.953,1097.117z M813.779,1099.942
			c-0.43,0-0.778-0.349-0.778-0.778v-26.301c0-0.43,0.349-0.778,0.778-0.778c0.43,0,0.778,0.349,0.778,0.778v26.301
			C814.557,1099.594,814.209,1099.942,813.779,1099.942z"/>
	</g>
</g>
</svg>
