<?xml version="1.0" encoding="iso-8859-1"?>
<!-- Generator: Adobe Illustrator 19.0.0, SVG Export Plug-In . SVG Version: 6.00 Build 0)  -->
<svg version="1.1" id="Layer_1" xmlns="http://www.w3.org/2000/svg" xmlns:xlink="http://www.w3.org/1999/xlink" x="0px" y="0px"
	 viewBox="0 0 100 100" style="enable-background:new 0 0 100 100;" xml:space="preserve">
<circle id="XMLID_56_" style="fill:#FDCF33;stroke:#FCB715;stroke-width:0.2;stroke-miterlimit:10;" cx="49.941" cy="50.313" r="42.059"/>
<circle id="XMLID_53_" style="fill:#FDB813;" cx="41.575" cy="39.563" r="11.625"/>
<circle id="XMLID_50_" style="fill:#FDB813;" cx="58.307" cy="39.563" r="11.625"/>
<ellipse id="XMLID_49_" style="fill:#FFFFFF;" cx="41.575" cy="39.563" rx="7.512" ry="8.329"/>
<ellipse id="XMLID_48_" style="fill:#FFFFFF;" cx="58.307" cy="39.563" rx="7.512" ry="8.329"/>
<ellipse id="XMLID_45_" style="fill:#181D36;" cx="41.575" cy="39.563" rx="2.839" ry="3.312"/>
<ellipse id="XMLID_42_" style="fill:#181D36;" cx="58.307" cy="39.563" rx="2.839" ry="3.312"/>
<line id="XMLID_65_" style="fill:#171D35;stroke:#171D35;stroke-width:0.2;stroke-miterlimit:10;" x1="34.331" y1="36.058" x2="49.247" y2="38.488"/>
<path id="XMLID_60_" style="fill:#FED748;" d="M34.113,35.717l15.289,2.354C49.402,38.072,44.863,23.79,34.113,35.717z"/>
<line id="XMLID_61_" style="fill:#171D35;stroke:#171D35;stroke-width:0.2;stroke-miterlimit:10;" x1="50.728" y1="38.72" x2="64.957" y2="35.142"/>
<path id="XMLID_2_" style="fill:#FED748;" d="M50.756,38.488l14.208-3.611C64.964,34.877,55.729,24.044,50.756,38.488z"/>
<line id="XMLID_15_" style="fill:none;stroke:#7F4F24;stroke-width:0.7;stroke-linecap:round;stroke-miterlimit:10;" x1="64.145" y1="28.04" x2="52.346" y2="35.194"/>
<line id="XMLID_62_" style="fill:none;stroke:#7F4F24;stroke-width:0.7;stroke-linecap:round;stroke-miterlimit:10;" x1="47.475" y1="34.81" x2="35.676" y2="27.656"/>
<path id="XMLID_63_" style="fill:none;stroke:#000000;stroke-width:2;stroke-linecap:round;stroke-miterlimit:10;" d="
	M65.582,69.171c0,0-14.738-12.313-31.282,0"/>
</svg>
