<?xml version="1.0" encoding="iso-8859-1"?>
<!-- Generator: Adobe Illustrator 20.1.0, SVG Export Plug-In . SVG Version: 6.00 Build 0)  -->
<svg version="1.1" id="Layer_1" xmlns="http://www.w3.org/2000/svg" xmlns:xlink="http://www.w3.org/1999/xlink" x="0px" y="0px"
	 viewBox="0 0 80 80" style="enable-background:new 0 0 80 80;" xml:space="preserve">
<g id="layer1" transform="translate(0,-1020.3622)">
	<path id="path5454-43-82-9-5-8" style="fill:#504851;" d="M10.295,1032.251c-5.465,0-9.895,4.466-9.895,9.953v22.222
		c0,5.487,4.439,9.9,9.895,9.9h4.955v12.351l12.307-12.351h2.523c0.667,3.632,3.843,6.376,7.657,6.376h20.849l9.755,9.76v-9.76
		h3.456c4.295,0,7.802-3.472,7.802-7.783v-16.798c0-4.311-3.499-7.826-7.802-7.826h-6.69v-6.091c0-5.487-4.435-9.953-9.9-9.953
		H10.295z M10.146,1035.246l45.193-0.048c4.215,0,6.578,2.641,6.578,6.895l0.116,22.246c0,4.254-2.357,6.58-6.58,6.58l-30.055,0.228
		l-6.923,7.967l0.525-7.921l-8.816-0.275c-4.223,0-6.575-2.326-6.575-6.58l-0.041-22.198
		C3.568,1037.887,5.931,1035.246,10.146,1035.246z M65.38,1050.719h6.401c3.05,0,5.469,2.427,5.469,5.494v16.196
		c0,3.066-2.41,5.449-5.469,5.449l-6.448,0.212l0.375,5.458l-4.689-5.417H38.564c-2.553,0-4.672-1.238-5.297-3.57l21.95-0.037
		c5.601,0,10.163-4.53,10.163-10.163V1050.719z M21.664,1050.719v5.127h5.087v-5.127H21.664z M30.022,1050.719v5.127h5.087v-5.127
		H30.022z M38.451,1050.719v5.127h5.087v-5.127H38.451z"/>
</g>
</svg>
