<?xml version="1.0" encoding="iso-8859-1"?>
<!-- Generator: Adobe Illustrator 20.1.0, SVG Export Plug-In . SVG Version: 6.00 Build 0)  -->
<svg version="1.1" id="Layer_1" xmlns="http://www.w3.org/2000/svg" xmlns:xlink="http://www.w3.org/1999/xlink" x="0px" y="0px"
	 viewBox="0 0 80 80" style="enable-background:new 0 0 80 80;" xml:space="preserve">
<path id="XMLID_19_" style="fill:none;stroke:#504851;stroke-width:2.5;stroke-miterlimit:10;" d="M18.996,26.89
	c1.635-7.765,11.733-17.978,25.469-15.712C56.558,13.436,65.63,28.836,60.821,39.46 M61.343,38.821
	c17.545-5.689,25.141,23.046,3.995,23.406c-17.161,0.293-31.221,0.173-47.97-0.012c-6.816-0.075-14.76-8.642-15.101-16.198
	c-0.561-6.996,4.716-17.071,14.815-18.256c7.591-0.891,14.506,3.633,18.868,6.306 M56.381,46.562
	c1.642-1.537,3.387-4.108,4.56-7.374"/>
<g id="icon-130-cloud-upload_1_">
	<path id="cloud-upload_1_" style="fill:#504851;" d="M40.599,44.94l-9.068,9.048L29.439,51.9l12.555-12.528L54.55,51.9
		l-2.093,2.088l-9.068-9.048v24.044h-2.79V44.94L40.599,44.94z"/>
</g>
</svg>
