<?xml version="1.0" encoding="iso-8859-1"?>
<!-- Generator: Adobe Illustrator 19.0.0, SVG Export Plug-In . SVG Version: 6.00 Build 0)  -->
<svg version="1.1" id="Layer_1" xmlns="http://www.w3.org/2000/svg" xmlns:xlink="http://www.w3.org/1999/xlink" x="0px" y="0px"
	 viewBox="-19 24 60 50" style="enable-background:new -19 24 60 50;" xml:space="preserve">
<path style="fill:#58666E;" d="M29.032,34.219H-7.103c-2.379,0-4.326,1.874-4.326,4.165v20.643c0,2.291,1.947,4.165,4.326,4.165
	h23.194l11.415,7.156l-1.119-7.156h2.646c2.379,0,4.326-1.874,4.326-4.165V38.383C33.358,36.093,31.411,34.219,29.032,34.219z"/>
<g>
	<path style="fill:#FFFFFF;" d="M1.471,50.338c0,0.718-0.175,1.333-0.524,1.845c-0.349,0.511-0.866,0.899-1.549,1.163
		c-0.683,0.263-1.514,0.395-2.492,0.395c-0.934,0-1.735-0.143-2.402-0.429c-0.667-0.286-1.16-0.644-1.477-1.072
		c-0.318-0.43-0.477-0.86-0.477-1.292c0-0.286,0.102-0.531,0.305-0.734c0.203-0.203,0.461-0.305,0.772-0.305
		c0.273,0,0.483,0.067,0.629,0.2s0.286,0.321,0.419,0.562c0.267,0.464,0.586,0.81,0.958,1.039s0.878,0.343,1.52,0.343
		c0.521,0,0.948-0.115,1.282-0.347s0.5-0.498,0.5-0.796c0-0.457-0.173-0.791-0.519-1.001s-0.917-0.41-1.711-0.6
		c-0.896-0.222-1.625-0.456-2.187-0.701c-0.562-0.245-1.012-0.567-1.349-0.967s-0.505-0.893-0.505-1.477
		c0-0.521,0.156-1.013,0.467-1.477c0.311-0.464,0.77-0.834,1.377-1.11s1.339-0.415,2.197-0.415c0.674,0,1.279,0.07,1.816,0.21
		s0.985,0.327,1.344,0.562s0.632,0.496,0.82,0.782s0.281,0.566,0.281,0.839c0,0.299-0.1,0.543-0.3,0.734s-0.484,0.286-0.853,0.286
		c-0.267,0-0.494-0.076-0.681-0.229s-0.402-0.381-0.643-0.686c-0.197-0.254-0.429-0.457-0.696-0.61
		c-0.267-0.152-0.629-0.229-1.087-0.229c-0.47,0-0.861,0.1-1.172,0.3s-0.467,0.45-0.467,0.748c0,0.273,0.114,0.497,0.343,0.672
		s0.537,0.319,0.924,0.434c0.388,0.114,0.921,0.254,1.601,0.419c0.807,0.197,1.466,0.432,1.978,0.705
		c0.511,0.273,0.899,0.596,1.163,0.967S1.471,49.862,1.471,50.338z"/>
	<path style="fill:#FFFFFF;" d="M12.327,48.642v3.46c0,0.546-0.124,0.956-0.372,1.229s-0.575,0.41-0.982,0.41
		c-0.393,0-0.713-0.137-0.957-0.41s-0.367-0.683-0.367-1.229v-4.146c0-0.654-0.022-1.163-0.067-1.525
		c-0.044-0.362-0.165-0.659-0.362-0.891c-0.197-0.232-0.508-0.348-0.934-0.348c-0.851,0-1.412,0.292-1.682,0.877
		c-0.27,0.585-0.405,1.423-0.405,2.517v3.517c0,0.54-0.122,0.948-0.367,1.225c-0.245,0.275-0.567,0.414-0.967,0.414
		c-0.394,0-0.716-0.139-0.967-0.414c-0.251-0.277-0.376-0.685-0.376-1.225v-7.444c0-0.489,0.113-0.861,0.338-1.115
		c0.226-0.254,0.523-0.381,0.891-0.381c0.356,0,0.653,0.119,0.891,0.357c0.238,0.238,0.357,0.567,0.357,0.986v0.248
		c0.451-0.54,0.934-0.937,1.449-1.191s1.087-0.381,1.716-0.381c0.654,0,1.217,0.13,1.686,0.391c0.47,0.261,0.858,0.654,1.163,1.182
		c0.438-0.534,0.909-0.929,1.411-1.187c0.502-0.257,1.058-0.386,1.668-0.386c0.712,0,1.325,0.14,1.839,0.419
		c0.515,0.28,0.899,0.68,1.153,1.201c0.222,0.47,0.334,1.21,0.334,2.221v5.081c0,0.546-0.124,0.956-0.372,1.229
		s-0.575,0.41-0.982,0.41c-0.394,0-0.717-0.139-0.968-0.414c-0.251-0.277-0.376-0.685-0.376-1.225v-4.375
		c0-0.559-0.024-1.007-0.071-1.344c-0.049-0.337-0.177-0.62-0.387-0.848c-0.21-0.229-0.527-0.343-0.953-0.343
		c-0.343,0-0.669,0.102-0.977,0.305s-0.548,0.477-0.719,0.82C12.422,46.754,12.327,47.529,12.327,48.642z"/>
	<path style="fill:#FFFFFF;" d="M29.32,50.338c0,0.718-0.175,1.333-0.524,1.845s-0.866,0.899-1.549,1.163
		c-0.683,0.263-1.513,0.395-2.492,0.395c-0.934,0-1.735-0.143-2.402-0.429c-0.667-0.286-1.16-0.644-1.477-1.072
		c-0.318-0.43-0.477-0.86-0.477-1.292c0-0.286,0.102-0.531,0.305-0.734c0.203-0.203,0.461-0.305,0.772-0.305
		c0.273,0,0.483,0.067,0.629,0.2s0.286,0.321,0.419,0.562c0.267,0.464,0.586,0.81,0.958,1.039c0.371,0.229,0.878,0.343,1.52,0.343
		c0.521,0,0.948-0.115,1.282-0.347c0.333-0.232,0.5-0.498,0.5-0.796c0-0.457-0.174-0.791-0.519-1.001
		c-0.347-0.21-0.917-0.41-1.711-0.6c-0.896-0.222-1.624-0.456-2.188-0.701c-0.561-0.245-1.011-0.567-1.348-0.967
		s-0.505-0.893-0.505-1.477c0-0.521,0.156-1.013,0.467-1.477c0.311-0.464,0.77-0.834,1.378-1.11
		c0.606-0.276,1.339-0.415,2.196-0.415c0.674,0,1.278,0.07,1.815,0.21s0.985,0.327,1.345,0.562c0.358,0.235,0.631,0.496,0.82,0.782
		c0.186,0.286,0.281,0.566,0.281,0.839c0,0.299-0.101,0.543-0.3,0.734c-0.201,0.191-0.485,0.286-0.854,0.286
		c-0.267,0-0.495-0.076-0.682-0.229s-0.401-0.381-0.643-0.686c-0.197-0.254-0.429-0.457-0.696-0.61
		c-0.267-0.152-0.629-0.229-1.087-0.229c-0.47,0-0.861,0.1-1.172,0.3s-0.467,0.45-0.467,0.748c0,0.273,0.114,0.497,0.343,0.672
		s0.537,0.319,0.924,0.434c0.388,0.114,0.921,0.254,1.601,0.419c0.807,0.197,1.466,0.432,1.977,0.705s0.899,0.596,1.163,0.967
		C29.188,49.437,29.32,49.862,29.32,50.338z"/>
</g>
<g>
	<path style="fill:#FFFFFF;stroke:#58666E;stroke-width:0.5;stroke-miterlimit:10;" d="M31.117,32.761
		c0.621,1.19,1.017,2.446,1.082,3.793c0.059,1.219-0.214,2.357-0.907,3.376c-0.475,0.7-1.086,1.26-1.799,1.711
		c-0.101,0.064-0.116,0.108-0.049,0.213c0.322,0.502,0.635,1.01,0.949,1.517c0.019,0.031,0.068,0.057,0.037,0.113
		c-0.022-0.003-0.043-0.006-0.063-0.01c-1.839-0.424-3.678-0.851-5.518-1.271c-0.115-0.026-0.112-0.072-0.091-0.163
		c0.422-1.817,0.841-3.635,1.263-5.453c0.01-0.041-0.006-0.101,0.061-0.119c0.337,0.539,0.675,1.076,1.007,1.617
		c0.057,0.093,0.096,0.096,0.184,0.039c0.355-0.229,0.701-0.473,1.037-0.73c0.822-0.631,1.559-1.342,2.097-2.236
		c0.459-0.763,0.743-1.576,0.61-2.488C31.101,32.646,31.092,32.721,31.117,32.761z"/>
	<path style="fill:#FFFFFF;stroke:#58666E;stroke-width:0.5;stroke-miterlimit:10;" d="M31.027,32.574
		c0.038,0.061,0.084,0.114,0.089,0.187c-0.044-0.019-0.038-0.092-0.099-0.092C31.001,32.637,30.987,32.605,31.027,32.574z"/>
</g>
</svg>
