<?xml version="1.0" encoding="iso-8859-1"?>
<!-- Generator: Adobe Illustrator 19.0.0, SVG Export Plug-In . SVG Version: 6.00 Build 0)  -->
<svg version="1.1" id="Layer_1" xmlns="http://www.w3.org/2000/svg" xmlns:xlink="http://www.w3.org/1999/xlink" x="0px" y="0px"
	 viewBox="-194 151 60 50" style="enable-background:new -194 151 60 50;" xml:space="preserve">
<path style="fill:#222222;" d="M-145.968,161.219h-36.135c-2.379,0-4.326,1.874-4.326,4.165v20.643c0,2.291,1.947,4.165,4.326,4.165
	h23.194l11.415,7.156l-1.119-7.156h2.646c2.379,0,4.326-1.874,4.326-4.165v-20.643
	C-141.642,163.093-143.589,161.219-145.968,161.219z"/>
<g>
	<path style="fill:#FFFFFF;" d="M-173.529,177.338c0,0.718-0.175,1.333-0.524,1.845c-0.349,0.511-0.866,0.899-1.549,1.163
		c-0.683,0.263-1.514,0.395-2.492,0.395c-0.934,0-1.735-0.143-2.402-0.429c-0.667-0.286-1.16-0.644-1.477-1.072
		c-0.318-0.43-0.477-0.86-0.477-1.292c0-0.286,0.102-0.531,0.305-0.734c0.203-0.203,0.461-0.305,0.772-0.305
		c0.273,0,0.483,0.067,0.629,0.2s0.286,0.321,0.419,0.562c0.267,0.464,0.586,0.81,0.958,1.039s0.878,0.343,1.52,0.343
		c0.521,0,0.948-0.115,1.282-0.347s0.5-0.498,0.5-0.796c0-0.457-0.173-0.791-0.519-1.001s-0.917-0.41-1.711-0.6
		c-0.896-0.222-1.625-0.456-2.187-0.701c-0.562-0.245-1.012-0.567-1.349-0.967s-0.505-0.893-0.505-1.477
		c0-0.521,0.156-1.013,0.467-1.477c0.311-0.464,0.77-0.834,1.377-1.11s1.339-0.415,2.197-0.415c0.674,0,1.279,0.07,1.816,0.21
		s0.985,0.327,1.344,0.562s0.632,0.496,0.82,0.782s0.281,0.566,0.281,0.839c0,0.299-0.1,0.543-0.3,0.734s-0.484,0.286-0.853,0.286
		c-0.267,0-0.494-0.076-0.681-0.229s-0.402-0.381-0.643-0.686c-0.197-0.254-0.429-0.457-0.696-0.61
		c-0.267-0.152-0.629-0.229-1.087-0.229c-0.47,0-0.861,0.1-1.172,0.3s-0.467,0.45-0.467,0.748c0,0.273,0.114,0.497,0.343,0.672
		s0.537,0.319,0.924,0.434c0.388,0.114,0.921,0.254,1.601,0.419c0.807,0.197,1.466,0.432,1.978,0.705
		c0.511,0.273,0.899,0.596,1.163,0.967S-173.529,176.862-173.529,177.338z"/>
	<path style="fill:#FFFFFF;" d="M-162.673,175.642v3.46c0,0.546-0.124,0.956-0.372,1.229s-0.575,0.41-0.982,0.41
		c-0.393,0-0.713-0.137-0.957-0.41s-0.367-0.683-0.367-1.229v-4.146c0-0.654-0.022-1.163-0.067-1.525
		c-0.044-0.362-0.165-0.659-0.362-0.891c-0.197-0.232-0.508-0.348-0.934-0.348c-0.851,0-1.412,0.292-1.682,0.877
		c-0.27,0.585-0.405,1.423-0.405,2.517v3.517c0,0.54-0.122,0.948-0.367,1.225c-0.245,0.275-0.567,0.414-0.967,0.414
		c-0.394,0-0.716-0.139-0.967-0.414c-0.251-0.277-0.376-0.685-0.376-1.225v-7.444c0-0.489,0.113-0.861,0.338-1.115
		c0.226-0.254,0.523-0.381,0.891-0.381c0.356,0,0.653,0.119,0.891,0.357c0.238,0.238,0.357,0.567,0.357,0.986v0.248
		c0.451-0.54,0.934-0.937,1.449-1.191s1.087-0.381,1.716-0.381c0.654,0,1.217,0.13,1.686,0.391c0.47,0.261,0.858,0.654,1.163,1.182
		c0.438-0.534,0.909-0.929,1.411-1.187c0.502-0.257,1.058-0.386,1.668-0.386c0.712,0,1.325,0.14,1.839,0.419
		c0.515,0.28,0.899,0.68,1.153,1.201c0.222,0.47,0.334,1.21,0.334,2.221v5.081c0,0.546-0.124,0.956-0.372,1.229
		s-0.575,0.41-0.982,0.41c-0.394,0-0.717-0.139-0.968-0.414c-0.251-0.277-0.376-0.685-0.376-1.225v-4.375
		c0-0.559-0.024-1.007-0.071-1.344c-0.049-0.337-0.177-0.62-0.387-0.848c-0.21-0.229-0.527-0.343-0.953-0.343
		c-0.343,0-0.669,0.102-0.977,0.305s-0.548,0.477-0.719,0.82C-162.578,173.754-162.673,174.529-162.673,175.642z"/>
	<path style="fill:#FFFFFF;" d="M-145.68,177.338c0,0.718-0.175,1.333-0.524,1.845s-0.866,0.899-1.549,1.163
		c-0.683,0.263-1.513,0.395-2.492,0.395c-0.934,0-1.735-0.143-2.402-0.429c-0.667-0.286-1.16-0.644-1.477-1.072
		c-0.318-0.43-0.477-0.86-0.477-1.292c0-0.286,0.102-0.531,0.305-0.734c0.203-0.203,0.461-0.305,0.772-0.305
		c0.273,0,0.483,0.067,0.629,0.2s0.286,0.321,0.419,0.562c0.267,0.464,0.586,0.81,0.958,1.039c0.371,0.229,0.878,0.343,1.52,0.343
		c0.521,0,0.948-0.115,1.282-0.347c0.333-0.232,0.5-0.498,0.5-0.796c0-0.457-0.174-0.791-0.519-1.001
		c-0.347-0.21-0.917-0.41-1.711-0.6c-0.896-0.222-1.624-0.456-2.188-0.701c-0.561-0.245-1.011-0.567-1.348-0.967
		s-0.505-0.893-0.505-1.477c0-0.521,0.156-1.013,0.467-1.477c0.311-0.464,0.77-0.834,1.378-1.11
		c0.606-0.276,1.339-0.415,2.196-0.415c0.674,0,1.278,0.07,1.815,0.21s0.985,0.327,1.345,0.562c0.358,0.235,0.631,0.496,0.82,0.782
		c0.186,0.286,0.281,0.566,0.281,0.839c0,0.299-0.101,0.543-0.3,0.734c-0.201,0.191-0.485,0.286-0.854,0.286
		c-0.267,0-0.495-0.076-0.682-0.229s-0.401-0.381-0.643-0.686c-0.197-0.254-0.429-0.457-0.696-0.61
		c-0.267-0.152-0.629-0.229-1.087-0.229c-0.47,0-0.861,0.1-1.172,0.3s-0.467,0.45-0.467,0.748c0,0.273,0.114,0.497,0.343,0.672
		s0.537,0.319,0.924,0.434c0.388,0.114,0.921,0.254,1.601,0.419c0.807,0.197,1.466,0.432,1.977,0.705s0.899,0.596,1.163,0.967
		C-145.812,176.437-145.68,176.862-145.68,177.338z"/>
</g>
<g>
	<path style="fill:#FFFFFF;stroke:#222222;stroke-width:2;stroke-miterlimit:10;" d="M-142.003,172.674
		c-0.253-1.614-1.159-2.844-2.337-3.897c-1.379-1.233-3.001-2.051-4.724-2.691c-0.704-0.261-1.417-0.492-2.139-0.695
		c-0.179-0.05-0.244-0.024-0.292,0.163c-0.279,1.09-0.571,2.177-0.86,3.267c-0.123,0.005-0.128-0.106-0.166-0.17
		c-1.666-2.86-3.328-5.721-4.995-8.58c-0.084-0.144-0.112-0.219,0.069-0.324c2.898-1.676,5.791-3.361,8.686-5.043
		c0.032-0.019,0.067-0.034,0.102-0.051c0.082,0.078,0.013,0.149-0.003,0.211c-0.267,1.024-0.532,2.049-0.815,3.068
		c-0.059,0.212-0.011,0.28,0.194,0.335c1.444,0.39,2.773,1.02,3.945,1.957c1.707,1.365,2.765,3.15,3.304,5.247
		c0.595,2.317,0.582,4.653,0.152,6.995C-141.904,172.547-141.849,172.67-142.003,172.674z"/>
	<path style="fill:#FFFFFF;stroke:#222222;stroke-width:2;stroke-miterlimit:10;" d="M-142.003,172.674
		c0.103-0.033,0.054-0.153,0.119-0.208c0.031,0.127-0.02,0.241-0.052,0.364C-142.021,172.799-142.014,172.737-142.003,172.674z"/>
</g>
</svg>
